<?xml version="1.0" encoding="UTF-8"?>
<svg id="Layer_1" data-name="Layer 1" xmlns="http://www.w3.org/2000/svg" version="1.1" viewBox="0 0 400 157.7">
  <defs>
    <style>
      .cls-1 {
        fill: #fff;
        stroke-width: 0px;
      }
    </style>
  </defs>
  <path class="cls-1" d="M60.1,78.7c-1.1,5,.6,7.1,6.2,7.1h17c11.6,0,14.9-1.5,19.4-3.4l-6.8,17h-54.1c-16,0-19.7-8.9-16.5-21.6l6.6-26.4c3.2-12.7,11.3-21.6,27.3-21.6h54.4l-1.2,17.3c-2-2.5-7.1-3.7-15.5-3.7h-20c-5.6,0-8.4,2.1-9.8,7.1l-7,28.1Z"/>
  <path class="cls-1" d="M110.7,79.8c1.1-5-.6-7.1-6.2-7.1h-17c-11.6,0-14.9,1.5-19.4,3.4l6.8-17h54.1c16,0,19.7,8.9,16.5,21.6l-6.6,26.4c-3.2,12.7-11.3,21.6-27.3,21.6h-54.4l1.2-17.3c2,2.5,7.1,3.7,15.5,3.7h20c5.6,0,8.4-2.1,9.8-7.1l7-28.1Z"/>
  <g>
    <path class="cls-1" d="M177.3,52.6c0-6.9-.8-10-4.5-10s-4.9,4.3-4.9,16.8.5,17.8,5.1,17.8,4.6-4.7,4.7-12.1h10.8v1.7c0,10.3-2.9,18-16.8,18s-15.5-10.7-15.5-25.1.7-24.4,16.5-24.4,15.3,4.3,15.3,15.5v2h-10.8Z"/>
    <path class="cls-1" d="M193.1,36h27.6v9.1h-16.4v9.5h15.3v9.1h-15.3v10.9h17.1v9.1h-28.3v-47.6Z"/>
    <path class="cls-1" d="M246.5,52.6c0-6.9-.8-10-4.5-10s-4.9,4.3-4.9,16.8.5,17.8,5.1,17.8,4.6-4.7,4.7-12.1h10.8v1.7c0,10.3-2.9,18-16.8,18s-15.5-10.7-15.5-25.1.7-24.4,16.6-24.4,15.3,4.3,15.3,15.5v2h-10.8Z"/>
    <path class="cls-1" d="M262.5,36h11.2v47.6h-11.2v-47.6Z"/>
    <path class="cls-1" d="M280.9,36h11.2v38.6h16.2v9.1h-27.4v-47.6Z"/>
    <path class="cls-1" d="M316.1,45.9c0,6.7-1.3,12.8-10.4,13.3v-5.2c3,0,4.1-2.1,4.1-6.5h-4.1v-11.6h10.4v9.9Z"/>
    <path class="cls-1" d="M332.3,69.1v1.7c0,3.6,1,6.3,4.9,6.3s5.1-2.9,5.1-5.7c0-10.3-20.5-4.5-20.5-22.4s4.1-14,15.6-14,15.2,5.7,15.2,13v1.1h-10.8c0-2.3-.3-3.9-.9-5-.7-1.1-1.7-1.7-3.4-1.7-2.8,0-4.5,1.7-4.5,5.1,0,9.9,20.5,4.9,20.5,21.8s-6,15.1-16.3,15.1-15.7-2.5-15.7-12.4v-3.1h10.8Z"/>
  </g>
  <g>
    <path class="cls-1" d="M174.3,102.1c0-3.8-2-7.2-6.1-7.2s-7.4,5.2-7.4,13.1,1.5,13.2,7.2,13.2,6.7-6.4,6.7-8.5h1.6c0,3.3-1.6,9.9-8.6,9.9s-8.5-5.4-8.5-14.4,2.5-14.5,9-14.5,7.8,5.8,7.8,8.5h-1.6Z"/>
    <path class="cls-1" d="M196.8,108.1c0,12.3-5.1,14.5-9,14.5s-9.1-3.6-9.1-14.5,3.9-14.5,9.1-14.5,9,3.6,9,14.5ZM180.4,108.1c0,7.7,1.6,13.1,7.4,13.1s7.4-4.2,7.4-13.1-1.7-13.1-7.4-13.1-7.4,5.4-7.4,13.1Z"/>
    <path class="cls-1" d="M202.6,94.1l12.2,25.4h0v-25.4h1.6v28h-2.2l-12.2-25.4h0v25.4h-1.6v-28h2.2Z"/>
    <path class="cls-1" d="M235.3,102.1c0-3.8-2-7.2-6.1-7.2s-7.4,5.2-7.4,13.1,1.5,13.2,7.2,13.2,6.7-6.4,6.7-8.5h1.6c0,3.3-1.6,9.9-8.6,9.9s-8.5-5.4-8.5-14.4,2.5-14.5,9-14.5,7.8,5.8,7.8,8.5h-1.6Z"/>
    <path class="cls-1" d="M240.6,94.1h8.2c3.9,0,6.9,2.2,6.9,7.3s-2,6.5-5.6,6.9h0c4.6.4,5.4,3.2,5.4,7v2.9c0,1.6.2,2.6.9,3.8h-1.9c-.4-.8-.7-2.2-.7-3.8v-2.9c0-4-1.1-6.3-5.6-6.3h-6v13h-1.6v-28ZM247.5,107.8c3.1,0,6.6-1,6.6-6.4s-2.1-6-5.5-6h-6.3v12.3h5.3Z"/>
    <path class="cls-1" d="M260.2,94.1h13.4v1.5h-11.7v11.2h10.9v1.5h-10.9v12.3h12.1v1.5h-13.7v-28Z"/>
    <path class="cls-1" d="M282,95.6h-7.4v-1.5h16.5v1.5h-7.4v26.5h-1.6v-26.5Z"/>
    <path class="cls-1" d="M293.6,94.1h13.4v1.5h-11.7v11.2h10.9v1.5h-10.9v12.3h12.1v1.5h-13.7v-28Z"/>
    <path class="cls-1" d="M311.8,118.1h1.6v3.9c0,3.1-.7,4.2-2.3,5.1v-1.3c1-.7,1.1-2,1.1-3.7h-.5v-4Z"/>
    <path class="cls-1" d="M327.7,94.1h1.6v26.5h11.7v1.5h-13.4v-28Z"/>
    <path class="cls-1" d="M344.4,94.1h1.6v26.5h11.7v1.5h-13.4v-28Z"/>
    <path class="cls-1" d="M375.3,102.1c0-3.8-2-7.2-6.1-7.2s-7.4,5.2-7.4,13.1,1.5,13.2,7.2,13.2,6.7-6.4,6.7-8.5h1.6c0,3.3-1.6,9.9-8.6,9.9s-8.5-5.4-8.5-14.4,2.5-14.5,9-14.5,7.8,5.8,7.8,8.5h-1.6Z"/>
  </g>
</svg>