<?xml version="1.0" encoding="UTF-8" standalone="no"?>
<svg
   id="Layer_1"
   data-name="Layer 1"
   version="1.1"
   viewBox="0 0 329.64545 266.60001"
   width="329.64545"
   height="266.60001"
   xmlns="http://www.w3.org/2000/svg"
   xmlns:svg="http://www.w3.org/2000/svg">
  <defs
     id="defs1">
    <style
       id="style1">
      .cls-1 {
        fill: #fff;
        stroke-width: 0px;
      }
    </style>
  </defs>
  <path
     class="cls-1"
     d="m 96.522728,131.7 c -3,13.6 1.6,19.2 16.800002,19.2 h 45.9 c 31.2,0 40.2,-4 52.2,-9.2 l -18.2,46 H 47.422728 c -43.1999999,0 -53.1999999,-24 -44.5999999,-58.3 L 20.522728,58.3 c 8.6,-34.4 30.5,-58.3 73.7,-58.3 H 240.82273 l -3.3,46.8 c -5.5,-6.8 -19.1,-10 -41.9,-10 h -53.9 c -15.2,0 -22.6,5.6 -26.4,19.2 l -18.900002,75.9 z"
     id="path1" />
  <path
     class="cls-1"
     d="m 233.12273,134.9 c 3,-13.6 -1.6,-19.2 -16.8,-19.2 h -46 c -31.2,0 -40.2,4 -52.2,9.2 l 18.3,-46 h 145.8 c 43.2,0 53.2,24 44.6,58.3 l -17.7,71.1 c -8.6,34.4 -30.5,58.3 -73.7,58.3 H 88.722728 l 3.3,-46.8 c 5.5,6.8 19.100002,10 41.900002,10 h 53.9 c 15.2,0 22.6,-5.6 26.4,-19.2 l 18.9,-75.9 z"
     id="path2" />
</svg>
